PathFileType	4	(X/Y/Z)	E:\Qualisys_Data\Carbon_Farble_Plate\Data\Amateur_Runner\S1\T1\S1T1V21_c3d.trc
DataRate	CameraRate	NumFrames	NumMarkers	Units	OrigDataRate	OrigDataStartFrame	OrigNumFrames
200.000000	200.000000	4	39	mm	200.000000	70	283
Frame#	Time	LSHO			RSHO			LICST			RICST			LASIS			LHEEL			RASIS			LTROC			RTROC			SACR			LTH1			LSK4			LTH2			LTH3			RHM5			LSK2			LTH4			RTH1			LTOE			RTH2			RTH3			RTH4			LLEP			RLEP			LSK1			LSK3			RSK1			LHM5			RSK2			LFT1			RSK3			RSK4			LLME			RLME			RTOE			RHEEL			RFT1			RFT2			LFT2			
		X1	Y1	Z1	X2	Y2	Z2	X3	Y3	Z3	X4	Y4	Z4	X5	Y5	Z5	X6	Y6	Z6	X7	Y7	Z7	X8	Y8	Z8	X9	Y9	Z9	X10	Y10	Z10	X11	Y11	Z11	X12	Y12	Z12	X13	Y13	Z13	X14	Y14	Z14	X15	Y15	Z15	X16	Y16	Z16	X17	Y17	Z17	X18	Y18	Z18	X19	Y19	Z19	X20	Y20	Z20	X21	Y21	Z21	X22	Y22	Z22	X23	Y23	Z23	X24	Y24	Z24	X25	Y25	Z25	X26	Y26	Z26	X27	Y27	Z27	X28	Y28	Z28	X29	Y29	Z29	X30	Y30	Z30	X31	Y31	Z31	X32	Y32	Z32	X33	Y33	Z33	X34	Y34	Z34	X35	Y35	Z35	X36	Y36	Z36	X37	Y37	Z37	X38	Y38	Z38	X39	Y39	Z39	

71	0.35	-1435.888671875	1544.179321289062	-596.03369140625	-1362.884399414062	1540.991577148438	-281.3239135742188	-1400.819946289062	1074.054809570312	-557.2278442382812	-1392.843994140625	1089.45703125	-263.7118225097656	-1358.141845703125	1037.092041015625	-531.1092529296875	-1198.830322265625	108.310920715332	-466.9506530761719	-1357.31201171875	1039.37744140625	-271.8428649902344	-1449.754028320312	946.3623657226562	-578.2006225585938	-1478.650756835938	962.5192260742188	-236.1744842529297	-1517.799926757812	1095.5078125	-402.7915649414062	-1284.490478515625	831.367431640625	-547.0401611328125	-1247.466918945312	276.9254150390625	-500.6205749511719	-1354.970581054688	798.9466552734375	-582.7039794921875	-1247.80517578125	734.7794189453125	-531.9371948242188	-1907.47119140625	202.577880859375	-284.2164611816406	-1266.045776367188	372.0719299316406	-539.1243286132812	-1325.27197265625	703.991455078125	-558.4761962890625	-1383.880859375	807.1069946289062	-268.4817810058594	-966.6442260742188	220.5046691894531	-478.4078674316406	-1455.269287109375	821.7527465820312	-238.5590362548828	-1408.294311523438	710.3643188476562	-280.540283203125	-1483.029296875	727.0162353515625	-255.1024169921875	-1236.994873046875	584.8512573242188	-520.2633666992188	-1515.379150390625	557.2550659179688	-296.0069885253906	-1184.010864257812	385.149658203125	-533.330810546875	-1171.823120117188	285.1166076660156	-528.6991577148438	-1676.351928710938	453.7975463867188	-280.1961059570312	-1015.397216796875	170.5224151611328	-534.620361328125	-1719.595336914062	521.5032958984375	-296.9629821777344	-1176.88623046875	93.2725067138672	-438.9009399414062	-1760.442016601562	396.9122009277344	-292.6089172363281	-1800.228759765625	463.0638122558594	-318.92626953125	-1163.513427734375	153.3291473388672	-518.1869506835938	-1888.115112304688	349.6117858886719	-296.724853515625	-1853.031494140625	152.9969635009766	-357.7315673828125	-1942.322143554688	390.8835144042969	-339.92578125	-1962.375366210938	370.7339782714844	-375.0252685546875	-1966.802490234375	374.9219360351562	-316.8838195800781	-1180.1162109375	82.34558868408203	-492.6224670410156
72	0.355	-1414.234130859375	1542.176513671875	-597.3320922851562	-1342.276123046875	1539.6826171875	-282.4586486816406	-1380.116333007812	1072.306396484375	-556.79248046875	-1372.673706054688	1087.435302734375	-263.5854187011719	-1338.164306640625	1035.234619140625	-530.99951171875	-1179.509765625	105.8558044433594	-466.0932006835938	-1336.40625	1037.974243164062	-271.0144958496094	-1429.0078125	944.0171508789062	-577.547119140625	-1456.819091796875	960.3443603515624	-235.6763458251953	-1497.529907226562	1093.489013671875	-402.7021179199219	-1265.048461914062	826.7364501953125	-546.3925170898438	-1228.249877929688	273.9643249511719	-499.796630859375	-1336.5859375	795.7766723632812	-583.575439453125	-1230.988037109375	728.6056518554688	-531.9443359375	-1888.298950195312	210.9089660644531	-284.05517578125	-1247.232421875	369.3861389160156	-537.9727783203125	-1308.876342773438	700.1493530273438	-562.547119140625	-1360.201782226562	805.8888549804688	-268.4292297363281	-948.365966796875	219.0469512939453	-478.6727600097656	-1431.7060546875	819.0855712890625	-238.2579345703125	-1383.698852539062	708.6611328125	-280.0286865234375	-1458.064086914062	723.69091796875	-255.6934051513672	-1219.087036132812	582.0139770507812	-519.6739501953125	-1488.563354492188	554.0242309570312	-295.9486694335938	-1165.649169921875	382.3261413574219	-533.1616821289062	-1152.525268554688	281.9663391113281	-528.12158203125	-1652.16943359375	454.5546264648438	-280.5006103515625	-997.006103515625	168.4873504638672	-534.654052734375	-1693.594604492188	522.9450073242188	-297.2179870605469	-1157.6513671875	90.67740631103516	-438.3211364746094	-1735.725708007812	400.8809814453125	-291.9381713867188	-1775.320922851562	466.7419738769531	-319.2532348632812	-1144.718627929688	150.4338226318359	-517.4284057617188	-1866.069091796875	357.0520935058594	-296.8289489746094	-1834.859008789062	159.8968353271484	-357.7127685546875	-1920.040649414062	399.2709655761719	-340.5787048339844	-1939.704956054688	379.9680786132812	-375.7987670898438	-1944.742553710938	384.3076782226562	-318.0179748535156	-1160.762573242188	79.78953552246094	-491.667724609375
73	0.36	-1391.840942382812	1539.555297851562	-598.09326171875	-1321.5458984375	1538.285400390625	-283.5586242675781	-1360.0048828125	1070.316162109375	-556.4923095703125	-1352.749633789062	1085.675170898438	-263.2337951660156	-1317.840942382812	1033.987426757812	-531.072021484375	-1162.4677734375	103.2832794189453	-464.6394958496094	-1316.539306640625	1036.409912109375	-271.3283081054688	-1409.62353515625	942.547119140625	-577.7666015625	-1435.813720703125	957.7734375	-234.8964996337891	-1476.828247070312	1091.364868164062	-402.5647583007812	-1246.596923828125	822.4788818359375	-546.6707763671875	-1210.454956054688	271.1494750976562	-498.9733276367188	-1317.995361328125	793.7615356445312	-584.9133911132812	-1215.068969726562	723.72802734375	-534.0224609375	-1868.776245117188	218.3591461181641	-284.4933471679688	-1229.220947265625	366.1614990234375	-536.7334594726562	-1291.9306640625	697.5216064453125	-564.76171875	-1336.879150390625	803.6709594726562	-269.4739685058594	-930.7212524414062	215.6583862304688	-479.3320922851562	-1408.323852539062	816.1010131835938	-238.1300201416016	-1358.28955078125	706.5465698242188	-279.9082946777344	-1432.7802734375	720.4202270507812	-254.9555511474609	-1200.73193359375	579.3756103515625	-519.076416015625	-1462.702758789062	550.210205078125	-296.1927185058594	-1147.565185546875	379.2055969238281	-532.4605712890625	-1134.6318359375	278.9693908691406	-527.4703979492188	-1627.587036132812	454.5501708984375	-281.1145935058594	-979.9617309570312	165.3615112304688	-534.3960571289062	-1666.374877929688	524.5863037109375	-297.4639892578125	-1139.76806640625	87.59313201904297	-436.9549560546875	-1712.494262695312	404.2197570800781	-292.3682556152344	-1750.448120117188	471.2367248535156	-318.7495422363281	-1127.553833007812	147.6560821533203	-516.5077514648438	-1842.816162109375	363.6596069335938	-297.0928039550781	-1816.018676757812	166.3272857666016	-357.1639709472656	-1896.028442382812	407.2125854492188	-341.5289611816406	-1916.569702148438	388.4322204589844	-376.6674499511719	-1921.306396484375	393.2621459960938	-318.8864440917969	-1142.064575195312	75.99620056152344	-489.7698974609375
74	0.365	-1369.987060546875	1536.3916015625	-599.5455322265625	-1301.262451171875	1536.451904296875	-284.3314208984375	-1340.289794921875	1068.092041015625	-556.578857421875	-1332.444213867188	1083.753051757812	-262.0419616699219	-1297.308837890625	1031.98876953125	-530.8700561523438	-1146.30908203125	99.90176391601562	-463.1362915039062	-1295.509155273438	1034.507080078125	-271.6506042480469	-1389.805908203125	940.3655395507812	-577.388427734375	-1413.510498046875	954.8613891601562	-233.3783721923828	-1456.742309570312	1088.700317382812	-402.2146911621094	-1228.543701171875	819.4192504882812	-547.0613403320312	-1193.918334960938	267.6380615234375	-497.8880615234375	-1299.498291015625	791.5059204101562	-585.8386840820312	-1197.0693359375	720.2307739257812	-535.1731567382812	-1847.746704101562	225.9470367431641	-284.087646484375	-1211.899291992188	363.1209411621094	-535.6893310546875	-1274.2509765625	694.7786865234375	-564.3968505859375	-1313.757080078125	801.3203125	-269.3261108398438	-914.1892700195312	211.3437957763672	-479.7503356933594	-1384.1708984375	812.3919067382812	-237.6128997802734	-1332.829711914062	704.0134887695312	-279.5659484863281	-1408.641357421875	716.775390625	-254.7462921142578	-1183.257446289062	576.8880615234375	-519.2215576171875	-1435.743286132812	546.8929443359375	-295.9692993164062	-1129.55419921875	375.707275390625	-531.3923950195312	-1117.535522460938	275.3069763183594	-525.96923828125	-1602.113159179688	454.2853698730469	-282.0010681152344	-964.2207641601562	161.0230255126953	-534.2598876953125	-1639.054443359375	525.3869018554688	-296.9566040039062	-1123.712280273438	84.33426666259766	-435.3572387695312	-1689.26513671875	404.9071960449219	-293.7859802246094	-1723.909912109375	474.2574462890625	-318.240234375	-1111.57421875	144.1853942871094	-515.4465942382812	-1819.496704101562	370.1510925292969	-297.9614562988281	-1796.727416992188	172.4849548339844	-357.7080078125	-1870.898193359375	414.7258911132812	-341.4933471679688	-1892.175415039062	396.1808166503906	-376.5998229980469	-1897.087158203125	401.6150817871094	-319.28662109375	-1127.047119140625	73.44441223144531	-488.3458557128906
